<svg xmlns="http://www.w3.org/2000/svg" width="1280" height="760" viewBox="0 0 1280 760" role="img" aria-labelledby="title desc">
  <title id="title">Traceball Arena gameplay board</title>
  <desc id="desc">Mock screenshot of Traceball Arena showing the pitch, colored legal move hints, jumping turn marker, replay controls, and match score.</desc>
  <defs>
    <linearGradient id="bg" x1="0" x2="1" y1="0" y2="1"><stop stop-color="#03160a"/><stop offset=".5" stop-color="#074916"/><stop offset="1" stop-color="#021207"/></linearGradient>
    <linearGradient id="field" x1="0" x2="1" y1="0" y2="1"><stop stop-color="#0cb240"/><stop offset="1" stop-color="#03651e"/></linearGradient>
    <linearGradient id="gold" x1="0" x2="1"><stop stop-color="#ffe784"/><stop offset=".52" stop-color="#f6b92b"/><stop offset="1" stop-color="#b86c00"/></linearGradient>
    <filter id="shadow" x="-20%" y="-20%" width="140%" height="140%"><feDropShadow dx="0" dy="24" stdDeviation="28" flood-color="#000" flood-opacity=".35"/></filter>
  </defs>
  <rect width="1280" height="760" fill="url(#bg)"/>
  <rect x="62" y="46" width="760" height="668" rx="30" fill="rgba(4,28,12,.84)" stroke="rgba(255,255,255,.18)" filter="url(#shadow)"/>
  <rect x="96" y="92" width="690" height="560" rx="26" fill="url(#field)"/>
  <g opacity=".18" transform="rotate(-28 441 372)"><rect x="-80" y="150" width="980" height="48" fill="#75ff8a"/><rect x="-80" y="270" width="980" height="48" fill="#004b12"/><rect x="-80" y="390" width="980" height="48" fill="#75ff8a"/><rect x="-80" y="510" width="980" height="48" fill="#004b12"/></g>
  <path d="M144 160H335M479 160H738V592H479M335 592H144V160" fill="none" stroke="#f8fff8" stroke-width="7" stroke-linecap="round"/>
  <path d="M335 160V104H479V160M335 592V648H479V592" fill="none" stroke="#f8fff8" stroke-width="7" stroke-linecap="round"/>
  <g stroke="#f5fff7" stroke-width="1" opacity=".8">
    <g id="points">
      <circle cx="144" cy="160" r="6"/><circle cx="218" cy="160" r="6"/><circle cx="292" cy="160" r="6"/><circle cx="366" cy="160" r="6"/><circle cx="441" cy="160" r="6"/><circle cx="515" cy="160" r="6"/><circle cx="589" cy="160" r="6"/><circle cx="663" cy="160" r="6"/><circle cx="738" cy="160" r="6"/>
      <circle cx="144" cy="376" r="6"/><circle cx="218" cy="376" r="6"/><circle cx="292" cy="376" r="6"/><circle cx="366" cy="376" r="10" fill="#0b7cff"/><circle cx="441" cy="376" r="10" fill="#0b7cff"/><circle cx="515" cy="376" r="10" fill="#0b7cff"/><circle cx="589" cy="376" r="6"/><circle cx="663" cy="376" r="6"/><circle cx="738" cy="376" r="6"/>
      <circle cx="144" cy="592" r="6"/><circle cx="218" cy="592" r="6"/><circle cx="292" cy="592" r="6"/><circle cx="366" cy="592" r="6"/><circle cx="441" cy="592" r="6"/><circle cx="515" cy="592" r="6"/><circle cx="589" cy="592" r="6"/><circle cx="663" cy="592" r="6"/><circle cx="738" cy="592" r="6"/>
    </g>
  </g>
  <path d="M441 376L515 376L589 322" fill="none" stroke="#0b7cff" stroke-width="8" stroke-linecap="round"/>
  <path d="M441 376L515 376L589 322" fill="none" stroke="rgba(255,255,255,.84)" stroke-width="3" stroke-linecap="round"/>
  <g fill="none" stroke="#ff3b30" stroke-width="4" opacity=".34">
    <circle cx="515" cy="268" r="20"/><circle cx="589" cy="268" r="20"/><circle cx="663" cy="268" r="20"/><circle cx="515" cy="322" r="20"/><circle cx="663" cy="322" r="20"/><circle cx="515" cy="376" r="20"/><circle cx="589" cy="376" r="20"/><circle cx="663" cy="376" r="20"/>
  </g>
  <path d="M840 594C865 520 870 253 840 178" fill="none" stroke="#ff3b30" stroke-width="5" stroke-dasharray="10 12" opacity=".7"/>
  <circle cx="840" cy="178" r="24" fill="#ff3b30" stroke="white" stroke-width="4"/><text x="840" y="186" text-anchor="middle" font-size="27">⚽</text>
  <circle cx="589" cy="322" r="16" fill="white"/><text x="589" y="330" text-anchor="middle" font-size="22">⚽</text>

  <rect x="866" y="46" width="352" height="240" rx="26" fill="rgba(4,28,12,.84)" stroke="rgba(255,255,255,.18)"/>
  <text x="900" y="104" fill="#f4fff6" font-family="Inter, system-ui" font-size="32" font-weight="850">Match</text>
  <text x="900" y="152" fill="#0b7cff" font-family="Inter, system-ui" font-size="24" font-weight="850">Blue Builder</text><text x="1120" y="152" fill="#f4fff6" font-family="Inter, system-ui" font-size="54" font-weight="950">1</text>
  <text x="900" y="218" fill="#ff3b30" font-family="Inter, system-ui" font-size="24" font-weight="850">Red Friend</text><text x="1120" y="218" fill="#f4fff6" font-family="Inter, system-ui" font-size="54" font-weight="950">0</text>
  <rect x="866" y="316" width="352" height="180" rx="26" fill="rgba(4,28,12,.84)" stroke="rgba(255,255,255,.18)"/>
  <text x="900" y="370" fill="#f4fff6" font-family="Inter, system-ui" font-size="28" font-weight="850">Replay</text>
  <text x="900" y="415" fill="#b8d8be" font-family="Inter, system-ui" font-size="20">Slower visual feedback makes bounces and turn changes readable.</text>
  <rect x="900" y="445" width="280" height="12" rx="6" fill="rgba(255,255,255,.18)"/><rect x="900" y="445" width="118" height="12" rx="6" fill="#11bf46"/>
  <rect x="910" y="535" width="260" height="118" rx="26" fill="url(#gold)" stroke="rgba(255,255,255,.7)"/>
  <text x="1040" y="582" text-anchor="middle" fill="#321d00" font-family="Inter, system-ui" font-size="24" font-weight="1000" letter-spacing="3">WINNER</text>
  <text x="1040" y="625" text-anchor="middle" fill="#321d00" font-family="Inter, system-ui" font-size="34" font-weight="1000">Blue Builder</text>
</svg>
